<?xml version="1.0" encoding="iso-8859-1"?>
<!-- Generator: Adobe Illustrator 19.0.0, SVG Export Plug-In . SVG Version: 6.00 Build 0)  -->
<svg version="1.1" id="Layer_1" xmlns="http://www.w3.org/2000/svg" xmlns:xlink="http://www.w3.org/1999/xlink" x="0px" y="0px"
	 viewBox="0 0 512.32 512.32" style="enable-background:new 0 0 512.32 512.32;" xml:space="preserve">
<g transform="translate(1 1)">
	<polygon style="fill:#FD9808;" points="490.84,86.2 466.947,110.093 478.893,122.04 502.787,98.147 	"/>
	<polygon style="fill:#FFFFFF;" points="383.32,28.173 69.293,342.2 86.36,359.267 400.387,45.24 	"/>
	<polygon style="fill:#FD9808;" points="468.653,111.8 154.627,425.827 171.693,442.893 485.72,128.867 	"/>
	<path style="fill:#FFFFFF;" d="M57.347,468.493l-8.533-8.533c23.04-23.04,38.4-50.347,43.52-75.947l1.707-11.947l-22.187-21.333
		l1.707,15.36c2.56,32.427-8.533,64-31.573,87.04L57.347,468.493z"/>
	<g>
		<polygon style="fill:#FFDD09;" points="81.24,355 394.413,41.827 472.067,118.627 158.04,432.653 		"/>
		<path style="fill:#FFDD09;" d="M466.947,113.507l-67.413-67.413L423.427,22.2c0,0,0,0,0.853,0l67.413,67.413L466.947,113.507z"/>
	</g>
	<path style="fill:#FFFFFF;" d="M423.427,26.467C423.427,25.613,424.28,25.613,423.427,26.467L412.333,14.52c0,0,0,0-0.853,0
		l-23.893,23.893l78.507,78.507L398.68,49.507L423.427,26.467z"/>
	<path style="fill:#FFDD09;" d="M65.027,472.76l4.267-4.267c20.48-20.48,45.227-34.987,68.267-41.813l11.947-3.413l-59.733-59.733
		l-1.707,11.947c-4.267,24.747-20.48,52.907-43.52,75.947l0,0L65.027,472.76z"/>
	<path style="fill:#FD9808;" d="M148.653,423.267l-11.947,3.413c-23.04,5.973-47.787,21.333-68.267,41.813l-4.267,4.267l8.533,8.533
		l4.267-4.267c20.48-20.48,48.64-32.427,77.653-32.427h15.36L148.653,423.267z"/>
	<polygon style="fill:#54C9FD;" points="43.693,451.427 68.44,475.32 43.693,499.213 7.853,487.267 	"/>
	<path d="M170.84,453.987c-2.56,0-4.267-0.853-5.973-2.56l-102.4-102.4c-3.413-3.413-3.413-8.533,0-11.947L375.64,23.053
		c3.413-3.413,8.533-3.413,11.947,0l102.4,102.4c3.413,3.413,3.413,8.533,0,11.947L176.813,451.427
		C175.107,452.28,173.4,453.987,170.84,453.987z M80.387,342.2l90.453,90.453l302.08-302.08l-91.307-89.6L80.387,342.2z"/>
	<path d="M478.893,133.987c-2.56,0-4.267-0.853-5.973-2.56l-91.307-90.453c-1.707-1.707-2.56-3.413-2.56-5.973
		c0-2.56,0.853-4.267,2.56-5.973l23.893-23.893c3.413-3.413,9.387-3.413,12.8,0l90.453,89.6c3.413,3.413,3.413,8.533,0,11.947
		l-23.893,23.893C483.16,133.133,480.6,133.987,478.893,133.987z M400.387,35l78.507,78.507l11.947-11.947l-78.507-78.507
		L400.387,35z"/>
	<path d="M74.413,489.827c-2.56,0-4.267-0.853-5.973-2.56l-35.84-35.84c-1.707-1.707-2.56-3.413-2.56-5.973s0.853-4.267,2.56-5.973
		c21.333-21.333,31.573-50.347,29.013-80.213l-1.707-15.36c0-3.413,1.707-6.827,5.12-8.533c2.56-2.56,6.827-1.707,9.387,0.853
		l102.4,102.4c2.56,2.56,3.413,5.973,1.707,9.387c-1.707,3.413-4.267,5.12-7.68,5.12h-15.36c-27.307,0-52.053,10.24-71.68,29.867
		l-3.413,4.267C78.68,488.973,76.12,489.827,74.413,489.827z M49.667,444.6l24.747,24.747c20.48-19.627,47.787-31.573,75.947-32.427
		l-71.68-71.68C79.533,394.253,69.293,422.413,49.667,444.6z"/>
	<path d="M43.693,507.747c-0.853,0-1.707,0-2.56-0.853l-35.84-11.947c-2.56-0.853-5.12-3.413-5.973-5.973s0-5.973,2.56-7.68
		l35.84-35.84c3.413-3.413,8.533-3.413,11.947,0l23.893,23.893c1.707,1.707,2.56,3.413,2.56,5.973s-0.853,4.267-2.56,5.973
		l-23.893,23.893C48.813,506.893,46.253,507.747,43.693,507.747z M24.067,483.853l17.92,5.973l14.507-14.507l-11.947-11.947
		L24.067,483.853z"/>
	<path d="M158.893,320.867c-2.56,0-4.267-0.853-5.973-2.56c-3.413-3.413-3.413-8.533,0-11.947l204.8-204.8
		c3.413-3.413,8.533-3.413,11.947,0c3.413,3.413,3.413,8.533,0,11.947l-204.8,204.8C163.16,320.013,160.6,320.867,158.893,320.867z"
		/>
	<path d="M200.707,362.68c-2.56,0-4.267-0.853-5.973-2.56c-3.413-3.413-3.413-8.533,0-11.947l204.8-204.8
		c3.413-3.413,8.533-3.413,11.947,0c3.413,3.413,3.413,8.533,0,11.947l-204.8,204.8C204.973,361.827,203.267,362.68,200.707,362.68z
		"/>
</g>
<g>
</g>
<g>
</g>
<g>
</g>
<g>
</g>
<g>
</g>
<g>
</g>
<g>
</g>
<g>
</g>
<g>
</g>
<g>
</g>
<g>
</g>
<g>
</g>
<g>
</g>
<g>
</g>
<g>
</g>
</svg>
