<?xml version="1.0" encoding="iso-8859-1"?>
<!-- Generator: Adobe Illustrator 19.0.0, SVG Export Plug-In . SVG Version: 6.00 Build 0)  -->
<svg version="1.1" id="Capa_1" xmlns="http://www.w3.org/2000/svg" xmlns:xlink="http://www.w3.org/1999/xlink" x="0px" y="0px"
	 viewBox="0 0 448 448" style="enable-background:new 0 0 448 448;" xml:space="preserve">
<g>
	<path style="fill:#FDB62F;" d="M160,416h128c17.673,0,32,14.327,32,32l0,0H128l0,0C128,430.327,142.327,416,160,416z"/>
	<path style="fill:#FDB62F;" d="M208,304h32v112h-32V304z"/>
</g>
<g>
	<path style="fill:#F5923B;" d="M208,304h32v24h-32V304z"/>
	<path style="fill:#F5923B;" d="M88,128h24v16H88V128z"/>
	<path style="fill:#F5923B;" d="M336,128h24v16h-24V128z"/>
</g>
<path style="fill:#4398D1;" d="M224,0L224,0c44.183,0,80,35.817,80,80v112c0,44.183-35.817,80-80,80l0,0c-44.183,0-80-35.817-80-80
	V80C144,35.817,179.817,0,224,0z"/>
<path style="fill:#3E8CC7;" d="M260.368,8.8c6.756,11.96,10.303,25.464,10.296,39.2v112c0.061,44.125-35.66,79.945-79.786,80.006
	c-12.719,0.018-25.258-3.002-36.574-8.806c21.691,38.492,70.478,52.112,108.97,30.422C288.411,247.457,303.973,220.853,304,192V80
	C303.99,49.954,287.135,22.449,260.368,8.8L260.368,8.8z"/>
<path style="fill:#FDB62F;" d="M224,312c-66.243-0.075-119.925-53.757-120-120v-80c0-4.418,3.582-8,8-8s8,3.582,8,8v80
	c0,57.438,46.562,104,104,104s104-46.562,104-104v-80c0-4.418,3.582-8,8-8s8,3.582,8,8v80C343.925,258.243,290.243,311.925,224,312z
	"/>
<g>
	<path style="fill:#2A7DB8;" d="M224,224c-4.418,0-8,3.582-8,8v39.6c2.632,0.256,5.296,0.4,8,0.4c2.704,0,5.368-0.144,8-0.4V232
		C232,227.582,228.418,224,224,224z"/>
	<path style="fill:#2A7DB8;" d="M256,224c-4.418,0-8,3.582-8,8v36.328c5.579-1.778,10.945-4.165,16-7.12V232
		C264,227.582,260.418,224,256,224z"/>
	<path style="fill:#2A7DB8;" d="M192,224c-4.418,0-8,3.582-8,8v29.208c5.055,2.955,10.421,5.342,16,7.12V232
		C200,227.582,196.418,224,192,224z"/>
	<path style="fill:#2A7DB8;" d="M208,72c0-4.418-3.582-8-8-8h-54.4c-1.066,5.267-1.602,10.627-1.6,16h56
		C204.418,80,208,76.418,208,72z"/>
	<path style="fill:#2A7DB8;" d="M208,104c0-4.418-3.582-8-8-8h-56v16h56C204.418,112,208,108.418,208,104z"/>
	<path style="fill:#2A7DB8;" d="M208,136c0-4.418-3.582-8-8-8h-56v16h56C204.418,144,208,140.418,208,136z"/>
	<path style="fill:#2A7DB8;" d="M208,168c0-4.418-3.582-8-8-8h-56v16h56C204.418,176,208,172.418,208,168z"/>
	<path style="fill:#2A7DB8;" d="M208,200c0-4.418-3.582-8-8-8h-56c-0.002,5.373,0.534,10.733,1.6,16H200
		C204.418,208,208,204.418,208,200z"/>
	<path style="fill:#2A7DB8;" d="M240,72c0,4.418,3.582,8,8,8h56c0.002-5.373-0.534-10.733-1.6-16H248C243.582,64,240,67.582,240,72z
		"/>
	<path style="fill:#2A7DB8;" d="M240,104c0,4.418,3.582,8,8,8h56V96h-56C243.582,96,240,99.582,240,104z"/>
	<path style="fill:#2A7DB8;" d="M240,136c0,4.418,3.582,8,8,8h56v-16h-56C243.582,128,240,131.582,240,136z"/>
	<path style="fill:#2A7DB8;" d="M240,168c0,4.418,3.582,8,8,8h56v-16h-56C243.582,160,240,163.582,240,168z"/>
	<path style="fill:#2A7DB8;" d="M240,200c0,4.418,3.582,8,8,8h54.4c1.066-5.267,1.602-10.627,1.6-16h-56
		C243.582,192,240,195.582,240,200z"/>
	<path style="fill:#2A7DB8;" d="M224,48c4.418,0,8-3.582,8-8V0.4c-2.632-0.256-5.296-0.4-8-0.4s-5.368,0.144-8,0.4V40
		C216,44.418,219.582,48,224,48z"/>
	<path style="fill:#2A7DB8;" d="M192,48c4.418,0,8-3.582,8-8V3.672c-5.579,1.778-10.945,4.165-16,7.12V40
		C184,44.418,187.582,48,192,48z"/>
	<path style="fill:#2A7DB8;" d="M256,48c4.418,0,8-3.582,8-8V10.792c-5.055-2.955-10.421-5.342-16-7.12V40
		C248,44.418,251.582,48,256,48z"/>
</g>
<g>
</g>
<g>
</g>
<g>
</g>
<g>
</g>
<g>
</g>
<g>
</g>
<g>
</g>
<g>
</g>
<g>
</g>
<g>
</g>
<g>
</g>
<g>
</g>
<g>
</g>
<g>
</g>
<g>
</g>
</svg>
